<?xml version="1.0" encoding="utf-8"?>
<!-- Generator: Adobe Illustrator 27.0.0, SVG Export Plug-In . SVG Version: 6.00 Build 0)  -->
<svg version="1.0" id="Layer_1" xmlns="http://www.w3.org/2000/svg" xmlns:xlink="http://www.w3.org/1999/xlink" x="0px" y="0px"
	 viewBox="0 0 147 40" style="enable-background:new 0 0 147 40;" xml:space="preserve">
<style type="text/css">
	.st0{enable-background:new    ;}
	.st1{fill:#5779FF;}
	.st2{fill:#FFFFFF;}
</style>
<g id="logo" transform="translate(-402 -71)">
	<g class="st0">
		<path d="M451.4,101c-1.2,0-2.3,0-3.3,0s-2,0-2.8,0c-0.9,0-1.6,0-2.3,0c0-1.2,0-2.4,0-3.5c0-1.1,0-2.4,0-3.9v-7.8c0-1.5,0-2.8,0-4
			c0-1.2,0-2.4,0-3.6c1.3,0,2.9,0,4.6,0s3.4,0,5.1,0c1.7,0,3.1,0.1,4.2,0.4c1.1,0.3,2,0.6,2.6,1.1s1.1,1,1.4,1.6
			c0.3,0.6,0.4,1.3,0.4,2.1c0,1-0.2,1.8-0.6,2.5c-0.4,0.7-0.9,1.3-1.5,1.7c-0.6,0.5-1.4,0.8-2.2,1V89c1,0.2,1.8,0.6,2.5,1
			c0.7,0.4,1.3,1,1.6,1.8c0.4,0.7,0.6,1.6,0.6,2.7c0,1-0.2,1.9-0.5,2.7c-0.3,0.8-0.8,1.5-1.6,2c-0.8,0.6-1.8,1-3.1,1.3
			C455.1,100.9,453.4,101,451.4,101z M449.3,96.3h2.7c0.6,0,1.1-0.1,1.6-0.3c0.4-0.2,0.7-0.4,0.9-0.8s0.3-0.8,0.3-1.3
			c0-0.8-0.2-1.3-0.7-1.7c-0.4-0.4-1.1-0.6-2-0.6h-4.4v-4.3h4c0.6,0,1-0.1,1.4-0.3c0.4-0.2,0.7-0.5,0.9-0.8s0.3-0.8,0.3-1.3
			c0-0.7-0.2-1.3-0.6-1.7c-0.4-0.4-1-0.6-1.8-0.6h-2.7c0,0.7,0,1.3,0,2c0,0.7,0,1.5,0,2.4v5c0,0.9,0,1.6,0,2.3
			S449.3,95.7,449.3,96.3z"/>
		<path d="M464,101c0-1.1,0-2.2,0-3.3c0-1.1,0-2.2,0-3.6v-1.6c0-1.2,0-2.5,0-3.7c0-1.2,0-2.5,0-3.8l5-0.3l0.3,2.8h0.5
			c0.4-0.8,0.8-1.4,1.3-1.8c0.5-0.4,0.9-0.7,1.4-0.9c0.5-0.2,1-0.2,1.4-0.2c0.2,0,0.5,0,0.8,0.1c0.3,0,0.6,0.1,0.9,0.2l-0.5,5.8
			c-0.4,0-0.9,0-1.2,0s-0.7,0-1.1,0c-0.3,0-0.6,0-0.9,0.1c-0.3,0.1-0.5,0.1-0.8,0.3c-0.2,0.1-0.4,0.3-0.6,0.5s-0.4,0.5-0.5,0.8v2.2
			c0,1.2,0,2.3,0,3.3s0,2.1,0,3.2H464z"/>
		<path d="M480.8,101.4c-0.9,0-1.7-0.2-2.4-0.6c-0.7-0.4-1.1-0.9-1.5-1.6c-0.3-0.7-0.5-1.5-0.5-2.3c0-0.9,0.2-1.7,0.5-2.3
			c0.3-0.6,0.8-1.1,1.3-1.5s1.1-0.7,1.6-0.9s1.1-0.3,1.6-0.4l4.3-0.7c0-0.4-0.1-0.7-0.3-0.9s-0.5-0.4-1-0.5s-1-0.2-1.6-0.2
			c-0.4,0-0.8,0-1.2,0.1s-0.9,0.1-1.4,0.2c-0.5,0.1-0.9,0.3-1.4,0.4s-1,0.4-1.4,0.6l-0.3-5c0.4-0.1,0.9-0.3,1.4-0.4
			c0.5-0.1,1.1-0.3,1.7-0.4c0.6-0.1,1.3-0.2,2-0.3s1.5-0.1,2.2-0.1c1.4,0,2.6,0.2,3.6,0.6c1,0.4,1.7,1,2.2,1.9s0.8,2,0.8,3.3
			c0,0.5,0,1.2,0,2c0,0.8,0,1.4,0,2v1.1c0,0.9,0,1.8,0,2.7s0,1.9,0,3h-4.9l-0.4-2.2h-0.4c-0.3,0.5-0.6,0.9-1.1,1.3
			c-0.4,0.4-0.9,0.7-1.5,1C482.2,101.3,481.6,101.4,480.8,101.4z M483.5,96.9c0.3,0,0.5-0.1,0.8-0.2c0.3-0.1,0.5-0.3,0.7-0.5
			c0.2-0.2,0.4-0.5,0.6-0.8V93c-0.1,0.1-0.2,0.2-0.4,0.3s-0.3,0.2-0.6,0.2c-0.3,0.1-0.6,0.2-1.1,0.3c-0.3,0.1-0.5,0.2-0.7,0.3
			c-0.2,0.1-0.4,0.3-0.5,0.5c-0.1,0.2-0.2,0.5-0.2,0.8c0,0.5,0.1,0.8,0.4,1S483.1,96.9,483.5,96.9z"/>
		<path d="M494,101c0-1.1,0-2.2,0-3.3c0-1.1,0-2.2,0-3.6v-1.6c0-1.2,0-2.5,0-3.7c0-1.2,0-2.5,0-3.8l5-0.3l0.3,2.7h0.5
			c0.4-0.5,0.8-1,1.3-1.5c0.5-0.4,1.1-0.8,1.7-1c0.6-0.3,1.4-0.4,2.2-0.4c1.6,0,2.8,0.5,3.6,1.4c0.8,0.9,1.3,2.3,1.3,4.2
			c0,0.7,0,1.4,0,2s0,1.3,0,2c0,1.3,0,2.5,0,3.6s0,2.2,0,3.3h-6c0-1.1,0-2.2,0-3.2c0-1,0-2.1,0-3.3v-2.3c0-0.7-0.1-1.3-0.3-1.7
			c-0.2-0.4-0.6-0.6-1.2-0.6c-0.3,0-0.6,0.1-0.9,0.2c-0.3,0.1-0.5,0.3-0.8,0.5c-0.2,0.2-0.4,0.5-0.6,0.7v3.1c0,1.2,0,2.3,0,3.3
			s0,2.1,0,3.2H494z"/>
		<path d="M518.1,101.5c-1.4,0-2.6-0.4-3.5-1.2c-0.9-0.8-1.6-1.8-2-3.1c-0.4-1.3-0.7-2.7-0.7-4.2c0-1.6,0.2-3,0.7-4.3
			c0.5-1.3,1.2-2.3,2.1-3s2.1-1.1,3.5-1.1c0.6,0,1.1,0.1,1.6,0.2c0.5,0.2,0.9,0.4,1.3,0.7c0.4,0.3,0.7,0.7,1,1.1h0.4v-1.3
			c0-1.3,0-2.6,0-3.8s0-2.5,0-3.9l6-0.5c0,1.2,0,2.5,0,3.9s0,2.8,0,4.3v8.9c0,1.3,0,2.5,0,3.6c0,1.1,0,2.1,0,3.3h-5l-0.4-2.1h-0.4
			c-0.4,0.6-0.8,1-1.2,1.4c-0.4,0.4-0.9,0.7-1.5,0.8C519.4,101.4,518.8,101.5,518.1,101.5z M520.5,96.5c0.3,0,0.6-0.1,0.9-0.2
			s0.5-0.3,0.7-0.5c0.2-0.2,0.3-0.4,0.5-0.7v-4.5c-0.1-0.2-0.3-0.4-0.5-0.5c-0.2-0.1-0.4-0.3-0.7-0.3c-0.3-0.1-0.5-0.1-0.8-0.1
			c-0.6,0-1,0.2-1.4,0.5c-0.4,0.3-0.6,0.7-0.8,1.2c-0.2,0.5-0.3,1.1-0.3,1.7c0,0.6,0.1,1.1,0.3,1.6c0.2,0.5,0.5,1,0.8,1.3
			C519.5,96.3,520,96.5,520.5,96.5z"/>
		<path d="M533.1,107.3c0.4-1.1,0.9-2.3,1.3-3.4c0.5-1.2,0.9-2.3,1.4-3.4v1c-0.4-1.1-0.8-2.2-1.1-3.3c-0.4-1.1-0.8-2.2-1.1-3.3
			l-1-2.9c-0.4-1.1-0.8-2.3-1.2-3.5s-0.8-2.4-1.2-3.5l6.4-0.2c0.2,1,0.4,2.1,0.6,3.1c0.2,1,0.4,2,0.6,3.1l0.8,3.9h0.4l0.9-3.9
			c0.2-1,0.5-2,0.7-3c0.2-1,0.4-2,0.7-3h6.4c-0.3,0.9-0.6,1.7-1,2.5c-0.3,0.8-0.6,1.7-1,2.6c-0.4,1-0.8,2.1-1.3,3.5l-1.7,4.5
			c-0.8,2-1.4,3.8-2,5.2c-0.5,1.4-1,2.7-1.5,3.9L533.1,107.3z"/>
	</g>
	<circle id="Ellipse_1" class="st1" cx="418" cy="90" r="16"/>
	<path id="icon" class="st2" d="M422.8,91.2c-0.7,2.7-3.4,4.3-6.1,3.6c-1.8-0.5-3.1-1.8-3.6-3.6h-6.4v-2.5h6.4
		c0.7-2.7,3.4-4.3,6.1-3.6c1.8,0.5,3.1,1.8,3.6,3.6h6.4v2.5H422.8z M418,92.5c1.4,0,2.5-1.1,2.5-2.5s-1.1-2.5-2.5-2.5
		s-2.5,1.1-2.5,2.5l0,0C415.5,91.4,416.6,92.5,418,92.5z"/>
</g>
</svg>
